<svg xmlns="http://www.w3.org/2000/svg" xmlns:xlink="http://www.w3.org/1999/xlink" id="Layer_1" data-name="Layer 1" viewBox="0 0 606.6 119.48"><defs><style>.cls-1{fill:url(#linear-gradient);}.cls-2{fill:#f76a23;}</style><linearGradient id="linear-gradient" x1="29.24" y1="98.6" x2="168.91" y2="98.6" gradientUnits="userSpaceOnUse"><stop offset="0.22" stop-color="#f05c5c"></stop><stop offset="1" stop-color="#f8a233"></stop></linearGradient></defs><title>MixedTrip-Logo-Couleur-Horizontal</title><path class="cls-1" d="M29.24,59.49v98.85s45.42,1.15,60.36-36.65c2.67-6.77,5.08-14.07,5.08-21.36v-2l-37.63,11.2v-4.85L94.68,83V57.89l3.45-5.5,3.4,5.5V82.52h0V101h0a58.57,58.57,0,0,0,3.22,18.93,57.11,57.11,0,0,0,31.47,34s12.7,5.95,32.67,4V59.49a20.63,20.63,0,0,0-20.63-20.63H49.86A20.62,20.62,0,0,0,29.24,59.49Zm77.08,40.32v-14l32.17,18.92v4.85Z" transform="translate(-29.24 -38.86)"></path><path class="cls-2" d="M263.93,65l19.77,66.79H269.38l-9.85-34.1-19.24,35.86L220.86,97.73l-9.75,34.1H196.78L216.47,65l23.82,43.59Z" transform="translate(-29.24 -38.86)"></path><path class="cls-2" d="M305.32,73a7.67,7.67,0,0,1-7.73,7.64h-.18a7.69,7.69,0,1,1,0-15.38h.18A7.69,7.69,0,0,1,305.32,73Zm-1,13.53v45.26H290.64V86.57Z" transform="translate(-29.24 -38.86)"></path><path class="cls-2" d="M335,117.86l-9.84,14H310.5l17.05-22.94-15.9-22.32h15.29l8.7,12.66,9-12.66h14.51l-15.82,21.8,16.87,23.46H344.87Z" transform="translate(-29.24 -38.86)"></path><path class="cls-2" d="M384.59,85.52c15.82,0,22.77,12.3,21.53,27.33h-31.9c1.49,5.71,6.77,8.79,14.15,8.79a26,26,0,0,0,14.33-4.4v11.69c-4.57,2.82-10.72,4-16.09,4-14.24,0-25.22-9.85-25.22-23.56A23.53,23.53,0,0,1,384.59,85.52Zm-10,18.63h18.9a8.76,8.76,0,0,0-9.05-7.74C379.76,96.41,376.07,99.31,374.57,104.15Z" transform="translate(-29.24 -38.86)"></path><path class="cls-2" d="M447.25,91.4V67.67H461v64.16H447.25V127c-2.37,3.08-7.29,5.89-13.62,5.89-12.22,0-21.71-10.2-21.71-23.64s9.49-23.73,21.71-23.73C440,85.52,444.88,88.42,447.25,91.4Zm-21.7,17.85c0,6.85,4.83,12,11,12,6.33,0,11.08-5.1,11.08-12s-4.75-12-11.08-12C430.38,97.29,425.55,102.3,425.55,109.25Z" transform="translate(-29.24 -38.86)"></path><path class="cls-2" d="M505.59,79.28v52.55H491.53V79.28H471.67V67.67h53.78V79.28Z" transform="translate(-29.24 -38.86)"></path><path class="cls-2" d="M553.58,99.58c-8.18-1.06-14,2.11-14,11v21.27H525.8V86.57h13.8V92.9a15.58,15.58,0,0,1,14-7.12Z" transform="translate(-29.24 -38.86)"></path><path class="cls-2" d="M576.43,73a7.67,7.67,0,0,1-7.74,7.64h-.17a7.69,7.69,0,1,1,0-15.38h.17A7.69,7.69,0,0,1,576.43,73Zm-1,13.53v45.26H561.75V86.57Z" transform="translate(-29.24 -38.86)"></path><path class="cls-2" d="M635.84,109.25c0,13.44-9.5,23.64-21.71,23.64-6.33,0-11.25-2.81-13.63-5.89v23.29H586.79V86.57H600.5V91.4c2.38-3,7.3-5.88,13.63-5.88C626.34,85.52,635.84,95.71,635.84,109.25Zm-35.69,0c0,6.85,4.75,12,11.08,12,6.15,0,11-5.1,11-12s-4.83-12-11-12C604.9,97.29,600.15,102.3,600.15,109.25Z" transform="translate(-29.24 -38.86)"></path></svg>